<svg xmlns="http://www.w3.org/2000/svg" style="isolation:isolate" viewBox="0 0 220 420"><defs><clipPath id="a"><path d="M0 0h220v420H0z"/></clipPath></defs><g clip-path="url(#a)" fill="#F90"><path d="M107.44 167.87c.54.91.7 2 .43 3.03a3.961 3.961 0 0 1-1.84 2.45c-.91.53-2 .69-3.03.42a3.915 3.915 0 0 1-2.44-1.84c-3.91-6.62-7.87-13.21-11.86-19.78-2.23-3.66-4.44-7.33-6.65-11.01-2.1-3.5-4.17-7.03-6.22-10.57-1.94-3.37-3.83-6.76-5.67-10.19-1.74-3.24-3.4-6.53-4.98-9.85a150.15 150.15 0 0 1-4.15-9.57c-1.21-3.06-2.27-6.18-3.18-9.34-.87-3.02-1.55-6.08-2.04-9.18-.47-3-.71-6.02-.72-9.05-.01-3.35.32-6.69.98-9.96.68-3.35 1.71-6.62 3.08-9.75 1.46-3.32 3.25-6.49 5.33-9.45 2.3-3.26 4.87-6.32 7.68-9.14A49.357 49.357 0 0 1 89.4 23.74c6.25-2.42 12.9-3.64 19.61-3.61h1.03c1.06.01 2.07.45 2.82 1.2.74.76 1.15 1.78 1.14 2.84a3.992 3.992 0 0 1-4.04 3.96h-1A45.43 45.43 0 0 0 92.3 31.2a41.39 41.39 0 0 0-14.46 9.52c-2.49 2.5-4.77 5.22-6.81 8.11a46.343 46.343 0 0 0-4.55 8.06c-1.14 2.61-2 5.33-2.57 8.12a41.87 41.87 0 0 0-.82 8.36c.01 2.62.22 5.23.62 7.82.44 2.77 1.05 5.51 1.83 8.21.84 2.92 1.82 5.8 2.93 8.63 1.21 3.07 2.52 6.09 3.94 9.06 1.52 3.21 3.12 6.38 4.8 9.51 1.8 3.35 3.65 6.68 5.55 9.97 2.02 3.5 4.07 6.99 6.15 10.46 2.2 3.66 4.41 7.31 6.62 10.96 4.02 6.6 7.99 13.23 11.91 19.88zM110.07 271.9c1.06 0 2.08.42 2.83 1.17a4.004 4.004 0 0 1 0 5.66c-.75.75-1.77 1.17-2.83 1.17H80c-1.99 0-3.98-.15-5.94-.46-1.64-.26-3.24-.67-4.79-1.25-1.36-.5-2.67-1.14-3.89-1.91-1.17-.73-2.24-1.58-3.21-2.55a18.825 18.825 0 0 1-2.68-3.41c-.8-1.32-1.46-2.72-1.96-4.18-.51-1.5-.89-3.03-1.12-4.6-.27-1.86-.41-3.75-.41-5.64v-20c0-1.06.42-2.08 1.17-2.83a4.004 4.004 0 0 1 5.66 0c.75.75 1.17 1.77 1.17 2.83v20c0 1.5.11 3 .33 4.48.15 1.07.41 2.13.76 3.15.32.92.74 1.8 1.24 2.64.42.69.92 1.33 1.5 1.9.54.54 1.14 1.02 1.79 1.43.77.48 1.58.88 2.42 1.19 1.06.39 2.14.67 3.25.85 1.56.24 3.13.36 4.71.36h30.07z"/><path d="M109.015 271.9c-1.06 0-2.08.42-2.83 1.17a4.004 4.004 0 0 0 0 5.66c.75.75 1.77 1.17 2.83 1.17h30.07c1.99 0 3.98-.15 5.94-.46 1.64-.26 3.24-.67 4.79-1.25 1.36-.5 2.67-1.14 3.89-1.91 1.17-.73 2.24-1.58 3.21-2.55 1.02-1.03 1.92-2.17 2.68-3.41.8-1.32 1.46-2.72 1.96-4.18.51-1.5.89-3.03 1.12-4.6.27-1.86.41-3.75.41-5.64v-20c0-1.06-.42-2.08-1.17-2.83a4.004 4.004 0 0 0-5.66 0c-.75.75-1.17 1.77-1.17 2.83v20c0 1.5-.11 3-.33 4.48-.15 1.07-.41 2.13-.76 3.15-.32.92-.74 1.8-1.24 2.64-.42.69-.92 1.33-1.5 1.9-.54.54-1.14 1.02-1.79 1.43-.77.48-1.58.88-2.42 1.19-1.06.39-2.14.67-3.25.85-1.56.24-3.13.36-4.71.36h-30.07zM125.11 351.9c1.06 0 2.08.42 2.83 1.17a4.004 4.004 0 0 1 0 5.66c-.75.75-1.77 1.17-2.83 1.17H60c-1.99 0-3.98-.15-5.94-.46-1.64-.26-3.24-.67-4.79-1.25-1.36-.5-2.67-1.14-3.89-1.91-1.17-.73-2.24-1.58-3.21-2.55a18.825 18.825 0 0 1-2.68-3.41c-.8-1.32-1.46-2.72-1.96-4.18-.51-1.5-.89-3.03-1.12-4.6-.27-1.86-.41-3.75-.41-5.64V271c0-1.06.42-2.08 1.17-2.83a4.004 4.004 0 0 1 5.66 0c.75.75 1.17 1.77 1.17 2.83v64.9c0 1.5.11 3 .33 4.48.15 1.07.41 2.13.76 3.15.32.92.74 1.8 1.24 2.64.42.69.92 1.33 1.5 1.9.54.54 1.14 1.02 1.79 1.43.77.48 1.58.88 2.42 1.19 1.06.39 2.14.67 3.25.85 1.56.24 3.13.36 4.71.36h65.11z"/><path d="M79.67 199.9c1.06 0 2.08-.42 2.83-1.17a4.004 4.004 0 0 0 0-5.66 4.004 4.004 0 0 0-2.83-1.17H60c-1.99 0-3.98.15-5.94.46-1.64.26-3.24.67-4.79 1.25-1.36.5-2.67 1.14-3.89 1.91-1.17.73-2.24 1.58-3.21 2.55a18.825 18.825 0 0 0-2.68 3.41c-.8 1.32-1.46 2.72-1.96 4.18-.51 1.5-.89 3.03-1.12 4.6-.27 1.86-.41 3.75-.41 5.64v64.9c0 1.06.42 2.08 1.17 2.83a4.004 4.004 0 0 0 5.66 0c.75-.75 1.17-1.77 1.17-2.83v-64.9c0-1.5.11-3 .33-4.48.15-1.07.41-2.13.76-3.15.32-.92.74-1.8 1.24-2.64.42-.69.92-1.33 1.5-1.9.54-.54 1.14-1.02 1.79-1.43.77-.48 1.58-.88 2.42-1.19 1.06-.39 2.14-.67 3.25-.85 1.56-.24 3.13-.36 4.71-.36h19.67z"/><path d="M64 235.9c0 1.06-.42 2.08-1.17 2.83a4.004 4.004 0 0 1-5.66 0A4.004 4.004 0 0 1 56 235.9c0-1.99.15-3.98.46-5.94.26-1.64.67-3.24 1.25-4.79.5-1.36 1.14-2.67 1.91-3.89.73-1.16 1.58-2.24 2.55-3.21 1.03-1.02 2.17-1.92 3.41-2.67 1.32-.81 2.72-1.47 4.18-1.97 1.5-.51 3.03-.89 4.6-1.12 1.87-.27 3.75-.41 5.64-.41h80.07c2 .03 3.99.22 5.96.56 1.64.28 3.25.72 4.8 1.32 1.34.51 2.63 1.16 3.85 1.93 1.14.73 2.2 1.58 3.16 2.54a18.74 18.74 0 0 1 2.65 3.37c.8 1.29 1.45 2.66 1.95 4.09.53 1.49.91 3.03 1.14 4.59.28 1.85.42 3.72.42 5.6v99.97c.03 1.98-.09 3.96-.37 5.92-.23 1.64-.63 3.24-1.19 4.8-.51 1.41-1.16 2.76-1.96 4.02-.75 1.2-1.65 2.31-2.67 3.3-1.03 1-2.18 1.88-3.42 2.61-1.34.79-2.75 1.43-4.22 1.92-1.49.49-3.01.85-4.56 1.07-1.86.26-3.73.39-5.61.39h-34.89c-1.06 0-2.08-.42-2.83-1.17a4.004 4.004 0 0 1 0-5.66c.75-.75 1.77-1.17 2.83-1.17H160c1.5 0 3-.11 4.49-.32 1.07-.15 2.13-.4 3.16-.74.93-.31 1.83-.71 2.68-1.21.69-.41 1.33-.9 1.91-1.46.56-.54 1.05-1.15 1.47-1.82.49-.77.89-1.6 1.2-2.46.38-1.05.64-2.13.8-3.22.22-1.56.32-3.13.29-4.7V235.9c0-1.48-.11-2.95-.33-4.42-.16-1.06-.42-2.1-.78-3.11-.31-.9-.72-1.76-1.22-2.57-.42-.69-.92-1.32-1.49-1.9a10.86 10.86 0 0 0-1.79-1.44c-.77-.48-1.58-.89-2.43-1.22-1.06-.4-2.16-.7-3.28-.9-1.56-.26-3.13-.41-4.71-.44H80c-1.5 0-3 .11-4.48.33-1.07.16-2.13.41-3.15.77-.92.31-1.8.73-2.63 1.23-.7.42-1.34.93-1.91 1.5-.54.54-1.02 1.14-1.43 1.79-.48.77-.88 1.58-1.19 2.42-.39 1.06-.67 2.14-.84 3.25-.25 1.56-.37 3.13-.37 4.71zM109.93 28.13a3.948 3.948 0 0 1-2.81-1.22 3.997 3.997 0 0 1 2.95-6.77 59.56 59.56 0 0 1 20.22 3.89 57.864 57.864 0 0 1 17.68 10.56 51.316 51.316 0 0 1 12.64 16.62c1.56 3.3 2.76 6.77 3.56 10.34.84 3.77 1.26 7.62 1.25 11.48-.02 4.65-.57 9.28-1.65 13.8a76.96 76.96 0 0 1-5.14 14.75 658.507 658.507 0 0 1-26.58 51.56 556.498 556.498 0 0 1-28.79 45.07 3.988 3.988 0 0 1-3.26 1.69H73c-1.06 0-2.08-.42-2.83-1.17a4.004 4.004 0 0 1 0-5.66c.75-.75 1.77-1.17 2.83-1.17h24.93a549.816 549.816 0 0 0 27.18-42.74c9.5-16.58 18.26-33.58 26.26-50.94a69.82 69.82 0 0 0 4.62-13.25c.93-3.92 1.41-7.93 1.43-11.96.01-3.27-.35-6.53-1.06-9.72a42.11 42.11 0 0 0-2.97-8.65 43.74 43.74 0 0 0-10.67-14.02 49.8 49.8 0 0 0-15.26-9.1 51.748 51.748 0 0 0-17.53-3.39z"/><path d="M56 315.9c0-3.71 1.48-7.27 4.1-9.9 2.63-2.62 6.19-4.1 9.9-4.1s7.27 1.48 9.9 4.1c2.62 2.63 4.1 6.19 4.1 9.9s-1.48 7.28-4.1 9.9c-2.63 2.62-6.19 4.1-9.9 4.1s-7.27-1.48-9.9-4.1a14.02 14.02 0 0 1-4.1-9.9zm8 0c0-1.59.63-3.12 1.76-4.24A5.97 5.97 0 0 1 70 309.9c1.59 0 3.12.63 4.24 1.76A5.97 5.97 0 0 1 76 315.9c0 1.59-.63 3.12-1.76 4.24A5.97 5.97 0 0 1 70 321.9a5.97 5.97 0 0 1-4.24-1.76A5.97 5.97 0 0 1 64 315.9zM135.333 315.9c0-3.71 1.48-7.27 4.1-9.9 2.63-2.62 6.19-4.1 9.9-4.1s7.27 1.48 9.9 4.1c2.62 2.63 4.1 6.19 4.1 9.9s-1.48 7.28-4.1 9.9c-2.63 2.62-6.19 4.1-9.9 4.1s-7.27-1.48-9.9-4.1a14.02 14.02 0 0 1-4.1-9.9zm8 0c0-1.59.63-3.12 1.76-4.24a5.97 5.97 0 0 1 4.24-1.76c1.59 0 3.12.63 4.24 1.76a5.97 5.97 0 0 1 1.76 4.24c0 1.59-.63 3.12-1.76 4.24a5.97 5.97 0 0 1-4.24 1.76 5.97 5.97 0 0 1-4.24-1.76 5.97 5.97 0 0 1-1.76-4.24z" fill-rule="evenodd"/><path d="M125 301.9c1.06 0 2.08.42 2.83 1.17a4.004 4.004 0 0 1 0 5.66c-.75.75-1.77 1.17-2.83 1.17H95c-1.06 0-2.08-.42-2.83-1.17a4.004 4.004 0 0 1 0-5.66c.75-.75 1.77-1.17 2.83-1.17h30zM125 321.9c1.06 0 2.08.42 2.83 1.17a4.004 4.004 0 0 1 0 5.66c-.75.75-1.77 1.17-2.83 1.17H95c-1.06 0-2.08-.42-2.83-1.17a4.004 4.004 0 0 1 0-5.66c.75-.75 1.77-1.17 2.83-1.17h30z"/><path d="M73 75.9c0-9.81 3.9-19.23 10.84-26.16A36.981 36.981 0 0 1 110 38.9c9.81 0 19.23 3.9 26.16 10.84A36.981 36.981 0 0 1 147 75.9c0 9.81-3.9 19.23-10.84 26.16A36.981 36.981 0 0 1 110 112.9c-9.81 0-19.23-3.9-26.16-10.84A36.981 36.981 0 0 1 73 75.9zm8 0c0-7.69 3.06-15.07 8.49-20.51A29.046 29.046 0 0 1 110 46.9c7.69 0 15.07 3.06 20.51 8.49A29.046 29.046 0 0 1 139 75.9c0 7.69-3.06 15.07-8.49 20.51A29.046 29.046 0 0 1 110 104.9c-7.69 0-15.07-3.06-20.51-8.49A29.046 29.046 0 0 1 81 75.9z" fill-rule="evenodd"/><path d="M22.83 398.73a4.004 4.004 0 0 1-5.66 0 4.004 4.004 0 0 1 0-5.66l40-40a4.004 4.004 0 0 1 5.66 0 4.004 4.004 0 0 1 0 5.66l-40 40zM202.83 393.07a4.004 4.004 0 0 1 0 5.66 4.004 4.004 0 0 1-5.66 0l-40-40a4.004 4.004 0 0 1 0-5.66 4.004 4.004 0 0 1 5.66 0l40 40zM160 371.9c1.06 0 2.08.42 2.83 1.17a4.004 4.004 0 0 1 0 5.66c-.75.75-1.77 1.17-2.83 1.17H60c-1.06 0-2.08-.42-2.83-1.17a4.004 4.004 0 0 1 0-5.66c.75-.75 1.77-1.17 2.83-1.17h100zM180 391.9c1.06 0 2.08.42 2.83 1.17a4.004 4.004 0 0 1 0 5.66c-.75.75-1.77 1.17-2.83 1.17H40c-1.06 0-2.08-.42-2.83-1.17a4.004 4.004 0 0 1 0-5.66c.75-.75 1.77-1.17 2.83-1.17h140zM160 191c1.06 0 2.08.42 2.83 1.17a4.004 4.004 0 0 1 0 5.66c-.75.75-1.77 1.17-2.83 1.17h-42.26l-4.17-6.94c-.55-.91-.71-2-.45-3.03.26-1.03.91-1.91 1.82-2.46s2-.71 3.03-.45c1.03.26 1.91.91 2.46 1.82l1.83 3.06H160z"/></g></svg>
