<?xml version="1.0" standalone="no"?><!-- Generator: Gravit.io --><svg xmlns="http://www.w3.org/2000/svg" xmlns:xlink="http://www.w3.org/1999/xlink" style="isolation:isolate" viewBox="0 0 220 220" width="220" height="220"><defs><clipPath id="_clipPath_8uSP5mpwHm0w1He7Pq9iuPcpzA5hfqws"><rect width="220" height="220"/></clipPath></defs><g clip-path="url(#_clipPath_8uSP5mpwHm0w1He7Pq9iuPcpzA5hfqws)"><g><linearGradient id="_lgradient_0" x1="0.49999999999999994" y1="-0.024038135256226847" x2="0.4999999999999998" y2="1.019846147522712" gradientTransform="matrix(180,0,0,180,20,20)" gradientUnits="userSpaceOnUse"><stop offset="0%" stop-opacity="1" style="stop-color:rgb(255,96,1)"/><stop offset="2.608695652173913%" stop-opacity="1" style="stop-color:rgb(255,94,0)"/><stop offset="99.1304347826087%" stop-opacity="1" style="stop-color:rgb(255,170,34)"/></linearGradient><path d=" M 189.615 54.615 L 172.308 54.615 L 172.308 51.154 C 172.308 41.6 164.554 33.846 155 33.846 L 139.838 33.846 L 137.692 29.554 C 134.771 23.686 128.774 19.983 122.219 20 L 97.781 20 C 91.204 20 85.25 23.669 82.308 29.554 L 80.162 33.846 L 65 33.846 C 55.446 33.846 47.692 41.6 47.692 51.154 L 47.692 54.615 L 30.385 54.615 C 24.673 54.615 20 59.288 20 65 L 20 85.769 C 20 91.515 24.673 96.154 30.385 96.154 C 36.096 96.154 40.769 91.515 40.769 85.769 L 40.769 61.538 L 47.692 61.538 L 47.692 155 C 47.692 163.065 53.231 169.781 60.708 171.719 L 32.392 200 L 42.223 200 L 69.881 172.308 L 150.119 172.308 L 177.777 200 L 187.608 200 L 159.292 171.719 C 166.769 169.781 172.308 163.065 172.308 155 L 172.308 61.538 L 179.231 61.538 L 179.231 85.769 C 179.231 91.515 183.904 96.154 189.615 96.154 C 195.327 96.154 200 91.515 200 85.769 L 200 65 C 200 59.288 195.327 54.615 189.615 54.615 Z  M 33.846 85.769 C 33.846 87.673 32.288 89.231 30.385 89.231 C 28.481 89.231 26.923 87.673 26.923 85.769 L 26.923 82.308 L 33.846 82.308 L 33.846 85.769 Z  M 33.846 75.385 L 26.923 75.385 L 26.923 65 C 26.923 63.096 28.481 61.538 30.385 61.538 L 33.846 61.538 L 33.846 75.385 Z  M 88.504 32.669 C 90.241 29.135 93.843 26.904 97.781 26.923 L 122.219 26.923 C 126.165 26.923 129.731 29.104 131.496 32.669 L 132.085 33.846 L 87.915 33.846 L 88.504 32.669 Z  M 165.385 155 C 165.385 160.712 160.712 165.385 155 165.385 L 65 165.385 C 59.288 165.385 54.615 160.712 54.615 155 L 54.615 51.154 C 54.615 45.442 59.288 40.769 65 40.769 L 155 40.769 C 160.712 40.769 165.385 45.442 165.385 51.154 L 165.385 155 Z  M 193.077 85.769 C 193.077 87.673 191.519 89.231 189.615 89.231 C 187.712 89.231 186.154 87.673 186.154 85.769 L 186.154 82.308 L 193.077 82.308 L 193.077 85.769 Z  M 193.077 75.385 L 186.154 75.385 L 186.154 61.538 L 189.615 61.538 C 191.519 61.538 193.077 63.096 193.077 65 L 193.077 75.385 Z " fill="url(#_lgradient_0)"/><linearGradient id="_lgradient_1" x1="0.49999999999999994" y1="-0.024038135256226847" x2="0.4999999999999998" y2="1.019846147522712" gradientTransform="matrix(96.923,0,0,55.385,61.538,54.615)" gradientUnits="userSpaceOnUse"><stop offset="0%" stop-opacity="1" style="stop-color:rgb(255,96,1)"/><stop offset="2.608695652173913%" stop-opacity="1" style="stop-color:rgb(255,94,0)"/><stop offset="99.1304347826087%" stop-opacity="1" style="stop-color:rgb(255,170,34)"/></linearGradient><path d=" M 148.077 54.615 L 71.923 54.615 C 66.198 54.615 61.538 59.275 61.538 65 L 61.538 99.615 C 61.538 105.341 66.198 110 71.923 110 L 148.077 110 C 153.802 110 158.462 105.341 158.462 99.615 L 158.462 65 C 158.462 59.275 153.802 54.615 148.077 54.615 Z  M 151.538 99.615 C 151.538 101.527 149.989 103.077 148.077 103.077 L 129.447 103.077 L 127.903 99.989 C 126.738 97.632 124.333 96.144 121.703 96.154 L 98.297 96.154 C 95.648 96.154 93.277 97.625 92.1 99.982 L 90.553 103.077 L 71.923 103.077 C 70.011 103.077 68.462 101.527 68.462 99.615 L 68.462 65 C 68.462 63.088 70.011 61.538 71.923 61.538 L 148.077 61.538 C 149.989 61.538 151.538 63.088 151.538 65 L 151.538 99.615 Z " fill="url(#_lgradient_1)"/><path d=" M 75.385 123.85 C 67.748 123.85 61.538 130.06 61.538 137.696 C 61.538 145.328 67.748 151.542 75.385 151.542 C 83.021 151.542 89.231 145.328 89.231 137.696 C 89.231 130.06 83.021 123.85 75.385 123.85 Z  M 75.385 144.619 C 71.567 144.619 68.462 141.514 68.462 137.696 C 68.462 133.878 71.567 130.773 75.385 130.773 C 79.203 130.773 82.308 133.878 82.308 137.696 C 82.308 141.514 79.203 144.619 75.385 144.619 Z " fill="rgb(255,142,21)"/><path d=" M 144.615 123.85 C 136.979 123.85 130.769 130.06 130.769 137.696 C 130.769 145.328 136.979 151.542 144.615 151.542 C 152.252 151.542 158.462 145.328 158.462 137.696 C 158.462 130.06 152.252 123.85 144.615 123.85 Z  M 144.615 144.619 C 140.797 144.619 137.692 141.514 137.692 137.696 C 137.692 133.878 140.797 130.773 144.615 130.773 C 148.433 130.773 151.538 133.878 151.538 137.696 C 151.538 141.514 148.433 144.619 144.615 144.619 Z " fill="rgb(255,142,21)"/><rect x="96.154" y="127.308" width="27.692" height="6.923" transform="matrix(1,0,0,1,0,0)" fill="rgb(255,142,21)"/><rect x="96.154" y="141.154" width="27.692" height="6.923" transform="matrix(1,0,0,1,0,0)" fill="rgb(255,142,21)"/><rect x="68.462" y="179.231" width="83.077" height="6.923" transform="matrix(1,0,0,1,0,0)" fill="rgb(255,151,26)"/><rect x="54.615" y="193.077" width="110.769" height="6.923" transform="matrix(1,0,0,1,0,0)" fill="rgb(255,151,26)"/></g></g></svg>