<?xml version="1.0" standalone="no"?><!-- Generator: Gravit.io --><svg xmlns="http://www.w3.org/2000/svg" xmlns:xlink="http://www.w3.org/1999/xlink" style="isolation:isolate" viewBox="0 0 220 220" width="220" height="220"><defs><clipPath id="_clipPath_9ukX248jej9piaNkE9rxOcRXZfyd5Hyq"><rect width="220" height="220"/></clipPath></defs><g clip-path="url(#_clipPath_9ukX248jej9piaNkE9rxOcRXZfyd5Hyq)"><circle vector-effect="non-scaling-stroke" cx="0" cy="0" r="1" transform="matrix(110,0,0,110,110,110)" fill="rgb(255,255,255)"/><g><linearGradient id="_lgradient_2" x1="0.5" y1="-0.024038135256226847" x2="0.49999999999999983" y2="1.019846147522712" gradientTransform="matrix(138,0,0,138,41,41)" gradientUnits="userSpaceOnUse"><stop offset="0%" stop-opacity="1" style="stop-color:rgb(255,96,1)"/><stop offset="2.608695652173913%" stop-opacity="1" style="stop-color:rgb(255,94,0)"/><stop offset="99.1304347826087%" stop-opacity="1" style="stop-color:rgb(255,170,34)"/></linearGradient><path d=" M 171.038 67.538 L 157.769 67.538 L 157.769 64.885 C 157.769 57.56 151.825 51.615 144.5 51.615 L 132.876 51.615 L 131.231 48.325 C 128.991 43.826 124.393 40.987 119.368 41 L 100.632 41 C 95.59 41 91.025 43.813 88.769 48.325 L 87.124 51.615 L 75.5 51.615 C 68.175 51.615 62.231 57.56 62.231 64.885 L 62.231 67.538 L 48.962 67.538 C 44.583 67.538 41 71.121 41 75.5 L 41 91.423 C 41 95.828 44.583 99.385 48.962 99.385 C 53.34 99.385 56.923 95.828 56.923 91.423 L 56.923 72.846 L 62.231 72.846 L 62.231 144.5 C 62.231 150.683 66.477 155.832 72.209 157.318 L 50.501 179 L 58.038 179 L 79.242 157.769 L 140.758 157.769 L 161.962 179 L 169.499 179 L 147.791 157.318 C 153.523 155.832 157.769 150.683 157.769 144.5 L 157.769 72.846 L 163.077 72.846 L 163.077 91.423 C 163.077 95.828 166.66 99.385 171.038 99.385 C 175.417 99.385 179 95.828 179 91.423 L 179 75.5 C 179 71.121 175.417 67.538 171.038 67.538 Z  M 51.615 91.423 C 51.615 92.883 50.421 94.077 48.962 94.077 C 47.502 94.077 46.308 92.883 46.308 91.423 L 46.308 88.769 L 51.615 88.769 L 51.615 91.423 Z  M 51.615 83.462 L 46.308 83.462 L 46.308 75.5 C 46.308 74.04 47.502 72.846 48.962 72.846 L 51.615 72.846 L 51.615 83.462 Z  M 93.52 50.713 C 94.851 48.004 97.613 46.293 100.632 46.308 L 119.368 46.308 C 122.393 46.308 125.127 47.98 126.48 50.713 L 126.932 51.615 L 93.068 51.615 L 93.52 50.713 Z  M 152.462 144.5 C 152.462 148.879 148.879 152.462 144.5 152.462 L 75.5 152.462 C 71.121 152.462 67.538 148.879 67.538 144.5 L 67.538 64.885 C 67.538 60.506 71.121 56.923 75.5 56.923 L 144.5 56.923 C 148.879 56.923 152.462 60.506 152.462 64.885 L 152.462 144.5 Z  M 173.692 91.423 C 173.692 92.883 172.498 94.077 171.038 94.077 C 169.579 94.077 168.385 92.883 168.385 91.423 L 168.385 88.769 L 173.692 88.769 L 173.692 91.423 Z  M 173.692 83.462 L 168.385 83.462 L 168.385 72.846 L 171.038 72.846 C 172.498 72.846 173.692 74.04 173.692 75.5 L 173.692 83.462 Z " fill="url(#_lgradient_2)"/><linearGradient id="_lgradient_3" x1="0.5" y1="-0.024038135256226847" x2="0.49999999999999983" y2="1.019846147522712" gradientTransform="matrix(74.308,0,0,42.462,72.846,67.538)" gradientUnits="userSpaceOnUse"><stop offset="0%" stop-opacity="1" style="stop-color:rgb(255,96,1)"/><stop offset="2.608695652173913%" stop-opacity="1" style="stop-color:rgb(255,94,0)"/><stop offset="99.1304347826087%" stop-opacity="1" style="stop-color:rgb(255,170,34)"/></linearGradient><path d=" M 139.192 67.538 L 80.808 67.538 C 76.418 67.538 72.846 71.111 72.846 75.5 L 72.846 102.038 C 72.846 106.428 76.418 110 80.808 110 L 139.192 110 C 143.582 110 147.154 106.428 147.154 102.038 L 147.154 75.5 C 147.154 71.111 143.582 67.538 139.192 67.538 Z  M 141.846 102.038 C 141.846 103.504 140.658 104.692 139.192 104.692 L 124.909 104.692 L 123.726 102.325 C 122.832 100.518 120.988 99.377 118.973 99.385 L 101.027 99.385 C 98.997 99.385 97.179 100.512 96.277 102.32 L 95.091 104.692 L 80.808 104.692 C 79.342 104.692 78.154 103.504 78.154 102.038 L 78.154 75.5 C 78.154 74.034 79.342 72.846 80.808 72.846 L 139.192 72.846 C 140.658 72.846 141.846 74.034 141.846 75.5 L 141.846 102.038 Z " fill="url(#_lgradient_3)"/><path d=" M 83.462 120.618 C 77.607 120.618 72.846 125.379 72.846 131.233 C 72.846 137.085 77.607 141.849 83.462 141.849 C 89.316 141.849 94.077 137.085 94.077 131.233 C 94.077 125.379 89.316 120.618 83.462 120.618 Z  M 83.462 136.541 C 80.534 136.541 78.154 134.161 78.154 131.233 C 78.154 128.306 80.534 125.926 83.462 125.926 C 86.389 125.926 88.769 128.306 88.769 131.233 C 88.769 134.161 86.389 136.541 83.462 136.541 Z " fill="rgb(255,142,21)"/><path d=" M 136.538 120.618 C 130.684 120.618 125.923 125.379 125.923 131.233 C 125.923 137.085 130.684 141.849 136.538 141.849 C 142.393 141.849 147.154 137.085 147.154 131.233 C 147.154 125.379 142.393 120.618 136.538 120.618 Z  M 136.538 136.541 C 133.611 136.541 131.231 134.161 131.231 131.233 C 131.231 128.306 133.611 125.926 136.538 125.926 C 139.466 125.926 141.846 128.306 141.846 131.233 C 141.846 134.161 139.466 136.541 136.538 136.541 Z " fill="rgb(255,142,21)"/><rect x="99.385" y="123.269" width="21.231" height="5.308" transform="matrix(1,0,0,1,0,0)" fill="rgb(255,142,21)"/><rect x="99.385" y="133.885" width="21.231" height="5.308" transform="matrix(1,0,0,1,0,0)" fill="rgb(255,142,21)"/><rect x="78.154" y="163.077" width="63.692" height="5.308" transform="matrix(1,0,0,1,0,0)" fill="rgb(255,151,26)"/><rect x="67.538" y="173.692" width="84.923" height="5.308" transform="matrix(1,0,0,1,0,0)" fill="rgb(255,151,26)"/></g></g></svg>