<svg xmlns="http://www.w3.org/2000/svg" style="isolation:isolate" viewBox="0 0 220 220"><defs><clipPath id="a"><path d="M0 0h220v220H0z"/></clipPath></defs><g clip-path="url(#a)"><path d="M53.561 200a4.22 4.22 0 0 0 3.449-1.769l22.073-30.898H68.677l-18.541 25.975A4.228 4.228 0 0 0 53.561 200zm97.762-32.667h-10.406l22.073 30.898a4.227 4.227 0 0 0 6.874-4.923l-18.541-25.975z" fill="#4788C7"/><path d="M63.333 183.667c-11.573 0-21-9.427-21-21V55.333c0-11.573 9.427-21 21-21h26.834l.602-1.4A21.005 21.005 0 0 1 110 20.333a21.005 21.005 0 0 1 19.231 12.6l.602 1.4h26.834c11.573 0 21 9.427 21 21v107.334c0 11.573-9.427 21-21 21H63.333z" fill="#98CCFD"/><path d="M110 22.667a18.637 18.637 0 0 1 17.08 11.209l1.241 2.791h28.346c10.299 0 18.666 8.367 18.666 18.666v107.334c0 10.299-8.367 18.666-18.666 18.666H63.333c-10.299 0-18.666-8.367-18.666-18.666V55.333c0-10.299 8.367-18.666 18.666-18.666h28.346l1.241-2.791A18.637 18.637 0 0 1 110 22.667zM110 18a23.31 23.31 0 0 0-21.364 14H63.333C50.447 32 40 42.447 40 55.333v107.334C40 175.553 50.447 186 63.333 186h93.334C169.553 186 180 175.553 180 162.667V55.333C180 42.447 169.553 32 156.667 32h-25.303A23.31 23.31 0 0 0 110 18z" fill="#4788C7"/><path d="M68 123c-6.441-.005-11.662-5.225-11.667-11.667V74c0-6.435 5.232-11.667 11.667-11.667h35V123H68z" fill="#DFF0FE"/><path d="M100.667 64.667v56H68c-5.143 0-9.333-4.191-9.333-9.334V74c0-5.143 4.19-9.333 9.333-9.333h32.667zM105.333 60H68c-7.732 0-14 6.268-14 14v37.333c0 7.732 6.268 14 14 14h37.333V60z" fill="#4788C7"/><path d="M117 123V62.333h35c6.435 0 11.667 5.232 11.667 11.667v37.333c0 6.436-5.232 11.667-11.667 11.667h-35z" fill="#DFF0FE"/><path d="M152 64.667c5.143 0 9.333 4.19 9.333 9.333v37.333c0 5.143-4.19 9.334-9.333 9.334h-32.667v-56H152zM152 60h-37.333v65.333H152c7.732 0 14-6.268 14-14V74c0-7.732-6.268-14-14-14z" fill="#4788C7"/><path d="M119.333 41.333a9.333 9.333 0 1 1-18.666 0 9.333 9.333 0 1 1 18.666 0zm42 109.667c0 6.435-5.231 11.667-11.666 11.667-6.442-.005-11.662-5.226-11.667-11.667 0-6.435 5.231-11.667 11.667-11.667 6.435 0 11.666 5.232 11.666 11.667zM82 151c0 6.435-5.231 11.667-11.667 11.667-6.441-.005-11.661-5.226-11.666-11.667 0-6.435 5.231-11.667 11.666-11.667C76.769 139.333 82 144.565 82 151z" fill="#FFF"/></g></svg>
